<svg preserveAspectRatio="none" width="100%" height="100%" overflow="visible" style="display: block;" viewBox="0 0 21.9984 19.432" fill="none" xmlns="http://www.w3.org/2000/svg">
<path id="Icon_2" fill-rule="evenodd" clip-rule="evenodd" d="M5.8685 0.368139C6.89713 -0.106616 8.07885 -0.122884 9.12022 0.323392L13.666 2.2716C14.1866 2.49473 14.7775 2.4866 15.2918 2.24923L19.1605 0.463692C20.4856 -0.147912 21.9984 0.820005 21.9984 2.27948V15.0758C21.9984 15.8558 21.5448 16.5647 20.8365 16.8916L16.1299 19.0639C15.1012 19.5387 13.9195 19.5549 12.8781 19.1086L8.33238 17.1604C7.81173 16.9373 7.22087 16.9454 6.70656 17.1827L2.83791 18.9683C1.51277 19.58 0 18.612 0 17.1525V4.35624C0 3.5762 0.453546 2.86734 1.16179 2.54046L5.8685 0.368139ZM6.70656 2.18391C6.80188 2.13993 6.89983 2.1038 6.99948 2.07557V15.0362C6.61204 15.0895 6.23078 15.1998 5.8685 15.367L1.99985 17.1525V4.35624L6.70656 2.18391ZM9.12022 15.3223C9.08012 15.3051 9.03982 15.2886 8.99933 15.2728V2.44737L12.8781 4.10975C13.239 4.26438 13.6167 4.36348 13.999 4.40722V17.3797C13.8858 17.3533 13.7744 17.3169 13.666 17.2704L9.12022 15.3223ZM15.9988 16.9218L19.9985 15.0758V2.27948L16.1299 4.065C16.0864 4.08505 16.0427 4.10427 15.9988 4.12267V16.9218Z" fill="var(--fill-0, #030213)"/>
</svg>
