<svg preserveAspectRatio="none" width="100%" height="100%" overflow="visible" style="display: block;" viewBox="0 0 23.9982 23.9982" fill="none" xmlns="http://www.w3.org/2000/svg">
<path id="Vector" fill-rule="evenodd" clip-rule="evenodd" d="M11.5908 0C10.098 0 8.83236 1.09771 8.62124 2.57555L8.4862 3.5208L7.7213 2.94713C6.52703 2.05142 4.85587 2.17019 3.80027 3.22579L3.22294 3.80311C2.16735 4.85872 2.04858 6.52987 2.94428 7.72414L3.51631 8.48684L2.57555 8.62124C1.09771 8.83236 0 10.098 0 11.5908V12.4074C0 13.9002 1.09771 15.1659 2.57555 15.3769L3.51831 15.5116L2.94653 16.274C2.05082 17.4683 2.16959 19.1395 3.22519 20.1951L3.80251 20.7723C4.85812 21.828 6.52927 21.9468 7.72354 21.051L8.48641 20.4789L8.62124 21.4227C8.83236 22.9005 10.098 23.9982 11.5908 23.9982H12.4074C13.9002 23.9982 15.1659 22.9005 15.3769 21.4227L15.5114 20.4813L16.2712 21.051C17.4655 21.9468 19.1367 21.828 20.1922 20.7724L20.7695 20.1951C21.8252 19.1395 21.944 17.4683 21.0482 16.2741L20.4768 15.5121L21.4227 15.3769C22.9005 15.1659 23.9982 13.9002 23.9982 12.4074V11.5908C23.9982 10.098 22.9005 8.83236 21.4227 8.62124L20.4788 8.48639L21.0504 7.72411C21.9462 6.52983 21.8274 4.85868 20.7718 3.80308L20.1945 3.22575C19.1389 2.17015 17.4677 2.05139 16.2735 2.94709L15.5116 3.51843L15.3769 2.57555C15.1659 1.09771 13.9002 0 12.4074 0H11.5908ZM10.601 2.85837C10.6714 2.36575 11.0933 1.99985 11.5908 1.99985H12.4074C12.9049 1.99985 13.3268 2.36575 13.3972 2.85837L13.6439 4.58513C13.6968 4.95517 13.9516 5.26482 14.3045 5.3879C14.5574 5.47605 14.8037 5.57834 15.0425 5.69384C15.3791 5.8567 15.7786 5.81803 16.0778 5.59363L17.4734 4.54697C17.8715 4.2484 18.4285 4.28799 18.7804 4.63985L19.3576 5.21719C19.7095 5.56905 19.7491 6.12611 19.4505 6.5242L18.4041 7.91948C18.1797 8.21872 18.141 8.61821 18.3039 8.95494C18.4196 9.19397 18.522 9.44052 18.6103 9.69364C18.7334 10.0466 19.0431 10.3014 19.413 10.3543L21.1398 10.601C21.6325 10.6714 21.9983 11.0933 21.9983 11.5908V12.4074C21.9983 12.9049 21.6325 13.3268 21.1398 13.3972L19.413 13.6439C19.0431 13.6968 18.7334 13.9516 18.6103 14.3045C18.5218 14.5582 18.4192 14.8053 18.3032 15.0449C18.1401 15.3815 18.1787 15.7812 18.4032 16.0805L19.4483 17.474C19.7469 17.8721 19.7073 18.4291 19.3554 18.781L18.7781 19.3582C18.4262 19.7101 17.8692 19.7497 17.4711 19.4511L16.0765 18.4052C15.7773 18.1808 15.3779 18.1421 15.0413 18.3049C14.8029 18.4202 14.557 18.5223 14.3045 18.6103C13.9516 18.7334 13.6968 19.0431 13.6439 19.413L13.3972 21.1398C13.3268 21.6325 12.9049 21.9983 12.4074 21.9983H11.5908C11.0933 21.9983 10.6714 21.6325 10.601 21.1398L10.3543 19.413C10.3014 19.0431 10.0466 18.7334 9.69365 18.6103C9.44056 18.5221 9.19404 18.4196 8.95504 18.304C8.61831 18.1411 8.21883 18.1797 7.91959 18.4042L6.52363 19.4511C6.12554 19.7497 5.56849 19.7101 5.21663 19.3582L4.63929 18.7809C4.28743 18.429 4.24784 17.8721 4.54641 17.4739L5.59357 16.0777C5.81798 15.7785 5.85664 15.379 5.69379 15.0424C5.57831 14.8036 5.47604 14.5573 5.3879 14.3045C5.26482 13.9516 4.95517 13.6968 4.58513 13.6439L2.85837 13.3972C2.36575 13.3268 1.99985 12.9049 1.99985 12.4074V11.5908C1.99985 11.0933 2.36575 10.6714 2.85837 10.601L4.58513 10.3543C4.95517 10.3014 5.26482 10.0466 5.3879 9.69365C5.47585 9.44139 5.57787 9.19567 5.69304 8.9574C5.85576 8.62074 5.81706 8.22142 5.59271 7.9223L4.54416 6.52423C4.24559 6.12614 4.28518 5.56909 4.63705 5.21722L5.21438 4.63989C5.56624 4.28803 6.1233 4.24844 6.52139 4.54701L7.91826 5.59466C8.21755 5.81913 8.61712 5.85775 8.95388 5.69474C9.19325 5.57888 9.44015 5.47628 9.69365 5.3879C10.0466 5.26482 10.3014 4.95517 10.3543 4.58513L10.601 2.85837Z" fill="var(--fill-0, #717182)"/>
</svg>
