<svg preserveAspectRatio="none" width="100%" height="100%" overflow="visible" style="display: block;" viewBox="0 0 25.47 25.47" fill="none" xmlns="http://www.w3.org/2000/svg">
<path id="Icon" d="M11.5779 1.28642C11.5779 0.575949 12.1538 0 12.8643 0C13.5748 0 14.1507 0.575949 14.1507 1.28642V11.5779H24.1836C24.894 11.5779 25.47 12.1538 25.47 12.8643C25.47 13.5748 24.894 14.1507 24.1836 14.1507H14.1507V24.1836C14.1507 24.894 13.5748 25.47 12.8643 25.47C12.1538 25.47 11.5779 24.894 11.5779 24.1836V14.1507H1.28642C0.575949 14.1507 0 13.5748 0 12.8643C0 12.1538 0.575949 11.5779 1.28642 11.5779H11.5779V1.28642Z" fill="var(--fill-0, white)"/>
</svg>
